<svg aria-hidden="true" style="position: absolute; width: 0; height: 0; overflow: hidden;" version="1.1" xmlns="http://www.w3.org/2000/svg" xmlns:xlink="http://www.w3.org/1999/xlink">
<defs>
<symbol id="icon-ep_arrow-right" viewBox="0 0 32 32">
<path d="M10.267 4.27c-0.166 0.171-0.268 0.405-0.268 0.662s0.102 0.491 0.268 0.662l-0-0 9.567 9.906-9.567 9.904c-0.165 0.171-0.267 0.404-0.267 0.662s0.102 0.49 0.268 0.662l-0-0c0.162 0.168 0.389 0.272 0.64 0.273h0c0 0 0 0 0 0 0.251 0 0.478-0.105 0.639-0.273l0-0 10.174-10.535c0.173-0.179 0.28-0.423 0.28-0.692s-0.107-0.513-0.28-0.692l0 0-10.174-10.535c-0.162-0.168-0.39-0.272-0.641-0.272-0.125 0-0.244 0.026-0.352 0.072l0.006-0.002c-0.114 0.050-0.212 0.118-0.293 0.202l-0 0v-0.003z"></path>
</symbol>
</defs>
</svg>
